<?xml version="1.0" encoding="UTF-8" standalone="no"?>
<svg
   version="1.1"
   id="Layer_1"
   x="0px"
   y="0px"
   width="821.41846"
   viewBox="0 0 821.41846 248.33997"
   enable-background="new 0 0 1024 768"
   xml:space="preserve"
   sodipodi:docname="bulle.svg"
   height="248.33997"
   inkscape:version="1.3.2 (091e20e, 2023-11-25)"
   xmlns:inkscape="http://www.inkscape.org/namespaces/inkscape"
   xmlns:sodipodi="http://sodipodi.sourceforge.net/DTD/sodipodi-0.dtd"
   xmlns="http://www.w3.org/2000/svg"
   xmlns:svg="http://www.w3.org/2000/svg"><defs
   id="defs8"><style
   id="logo-color">
:root {
  color: #24292f;
}
@media (prefers-color-scheme: dark) {
  :root {
    color: #f0f6fc;
  }
}
path {
  fill: currentColor;
}
   </style></defs><sodipodi:namedview
   id="namedview8"
   pagecolor="#ffffff"
   bordercolor="#24292f"
   borderopacity="0.25"
   inkscape:showpageshadow="2"
   inkscape:pageopacity="0.0"
   inkscape:pagecheckerboard="0"
   inkscape:deskcolor="#d1d1d1"
   inkscape:zoom="0.30729167"
   inkscape:cx="405.15254"
   inkscape:cy="126.91525"
   inkscape:window-width="1512"
   inkscape:window-height="921"
   inkscape:window-x="0"
   inkscape:window-y="33"
   inkscape:window-maximized="0"
   inkscape:current-layer="Layer_1" />
<path
   fill="currentColor"
   opacity="1"
   stroke="none"
   d="m 166.53979,241.13043 c -33.77087,11.31765 -66.53621,9.48278 -97.7223,-6.72678 C 30.5171,214.4963 7.1401702,182.64156 1.1436802,139.89144 -8.3441798,72.250786 42.36226,9.1068261 110.11416,0.91975612 176.48303,-7.1001739 235.76654,38.263786 247.79184,100.45297 c 8.92917,46.1773 -5.8238,84.99633 -40.27506,116.55783 -11.82443,10.83261 -25.56354,18.53988 -40.97699,24.11963 M 210.72448,64.262136 C 180.22122,22.437156 127.19581,8.8008961 80.21447,30.699546 40.58398,49.171866 15.40267,92.609886 20.52581,134.85281 c 5.88099,48.49157 45.75693,92.30499 103.99935,93.04489 33.8521,0.43014 61.59099,-13.78885 83.01689,-39.99936 15.11002,-18.48416 22.78284,-40.00699 22.90414,-63.65686 0.11106,-21.65183 -6.60275,-41.634194 -19.72171,-59.979344 z"
   id="path1" />
<path
   fill="currentColor"
   opacity="1"
   stroke="none"
   d="m 417.48822,192.85824 c -30.18509,30.78213 -82.008,23.24084 -100.60749,-14.41687 -4.11956,-8.34076 -5.86474,-17.38321 -5.89697,-26.61807 -0.12659,-36.32395 0.0146,-72.648844 -0.1438,-108.972544 -0.0212,-4.87036 1.21848,-7.08288 6.46265,-6.6271 4.62985,0.40237 9.34405,0.34219 13.98331,-0.0101 4.95715,-0.37649 6.21341,1.71338 6.16088,6.37293 -0.20828,18.4931 -0.0935,36.98993 -0.0693,55.48535 0.002,1.76511 -0.30719,3.611054 0.80911,5.801944 15.46091,-11.712924 32.53025,-14.246184 50.76294,-9.772954 12.90057,3.16501 23.44537,10.068644 31.40186,20.822244 17.19055,23.23404 16.091,56.36441 -2.86316,77.93521 m -35.49137,-75.03666 c -5.89059,-1.5947 -11.83374,-1.64701 -17.80056,-0.53983 -14.37183,2.66681 -28.03025,17.86093 -27.07413,37.5553 1.10934,22.84949 24.30444,39.09555 45.79233,31.25659 15.26187,-5.56769 23.2756,-18.15356 23.5087,-33.83142 0.20861,-14.0224 -6.64768,-27.79639 -24.42634,-34.44064 z"
   id="path2" />
<path
   fill="currentColor"
   opacity="1"
   stroke="none"
   d="m 768.87359,188.27471 c 9.80072,-0.5202 18.07209,-3.53845 24.45648,-10.61886 2.32795,-2.58179 4.22107,-2.43747 6.73035,-0.27964 3.65717,3.14505 7.45154,6.15894 11.3949,8.93393 3.21167,2.26013 3.51038,3.99836 0.67419,7.04935 -16.35308,17.59155 -36.95428,21.08578 -59.12908,16.87131 -28.74433,-5.46299 -47.5149,-29.67389 -46.55677,-58.30063 1.06824,-31.91583 20.85925,-55.137154 50.65283,-59.432104 35.80622,-5.16174 64.30024,19.460304 64.3216,55.581084 0.008,13.56461 0.008,13.56562 -13.37195,13.5629 -22.48041,-0.005 -44.96075,-0.0106 -67.44116,-0.0158 -1.97095,-4.5e-4 -3.9419,-6e-5 -5.85425,-6e-5 -1.65125,14.02219 14.7157,26.74317 34.12286,26.64853 m 5.35041,-71.60297 c -18.86554,-4.79556 -37.80909,6.42515 -39.92933,23.99363 20.22144,0 40.39741,0 60.58747,0 -0.38404,-11.35364 -7.62946,-19.89292 -20.65814,-23.99363 z"
   id="path3" />
<path
   fill="currentColor"
   opacity="1"
   stroke="none"
   d="m 454.00616,109.45678 c 0.29816,-16.976204 -2.08148,-14.763034 14.30371,-14.947364 15.03333,-0.16907 11.771,-0.3949 12.10431,11.859414 0.48407,17.79684 -0.84417,35.61926 0.87964,53.40332 1.27545,13.15884 9.01764,23.73596 20.19165,27.2034 12.39465,3.84625 25.42365,-1.39728 32.12817,-12.88956 4.05982,-6.95898 5.58295,-14.49588 5.54639,-22.48608 -0.0755,-16.48529 -0.0463,-32.97126 -0.005,-49.45679 0.0178,-7.130134 0.43818,-7.525304 7.69715,-7.608584 4.82757,-0.0554 9.65692,-0.001 14.48492,0.0544 2.52704,0.0292 4.05615,1.07092 3.99896,3.91065 -0.42859,21.294494 1.44269,42.666964 -0.91058,63.877654 -4.0694,36.67929 -33.02252,54.9856 -68.83539,47.87232 -25.61126,-5.08695 -38.46734,-25.93784 -40.81634,-50.38157 -1.59577,-16.60595 -0.44745,-33.2763 -0.7674,-50.41125 z"
   id="path4" />
<path
   fill="currentColor"
   opacity="1"
   stroke="none"
   d="m 682.98401,104.44442 c 0.0226,32.14011 0.0503,63.78018 0.0685,95.42029 0.005,8.89053 -0.008,8.8919 -8.64514,8.88171 -4.32972,-0.005 -8.67047,-0.21139 -12.98572,0.0345 -3.7063,0.21118 -4.8844,-1.08722 -4.85492,-4.8465 0.15924,-20.30496 0.39783,-40.61859 -0.0149,-60.91653 -0.60608,-29.80484 -0.23285,-59.607464 -0.40583,-89.410284 -0.0193,-3.323 0.3946,-6.64868 0.37073,-9.97144 -0.0546,-7.58777 0.32837,-7.38269 8.15473,-7.34887 3.99658,0.0172 8.01104,0.22924 11.98535,-0.0713 4.77569,-0.36115 6.4339,1.45797 6.38214,6.28049 -0.20007,18.6488 -0.0689,37.30114 -0.0607,55.95217 7.9e-4,1.831884 0.005,3.663794 0.006,5.995674 z"
   id="path5" />
<path
   fill="currentColor"
   opacity="1"
   stroke="none"
   d="m 595.03277,166.44442 c 0.004,-41.285 -0.005,-82.070044 0.021,-122.855044 0.005,-7.22632 0.0974,-7.24957 7.22485,-7.26486 4.99402,-0.0108 9.98841,0.0123 14.98181,-0.0471 2.91028,-0.0346 4.22181,1.2363 4.17463,4.21383 -0.0897,5.6583 0.006,11.31937 0.005,16.97928 -0.004,48.109844 -0.008,96.219704 -0.0233,144.329534 -0.002,6.92649 -0.0306,6.93604 -6.87414,6.94843 -4.49469,0.008 -9.01282,-0.3075 -13.47785,0.0514 -5.02093,0.40359 -6.22064,-1.76788 -6.1195,-6.39908 0.25781,-11.81381 0.0856,-23.63699 0.0871,-35.95642 z"
   id="path6" />
<path
   fill="currentColor"
   opacity="1"
   stroke="none"
   d="m 199.65521,87.987386 c -6.63434,4.83264 -10.78339,4.2251 -14.80216,-2.11554 -7.86376,-12.40726 -18.71041,-20.97324 -32.60992,-25.66071 -3.29907,-1.11258 -6.08878,-2.70019 -7.17905,-6.26626 -2.08665,-6.82508 3.6456,-13.41153 10.47876,-11.35044 19.55863,5.89936 34.82294,17.55756 45.14899,35.36588 1.96262,3.38474 1.64569,6.66995 -1.03662,10.02707 z"
   id="path7" />
<path
   fill="currentColor"
   opacity="1"
   stroke="none"
   d="m 209.33038,110.60519 c -3.32965,3.16357 -6.87686,4.16732 -10.74039,2.33603 -3.28228,-1.55573 -4.82394,-4.51041 -4.75631,-8.09552 0.0691,-3.66401 2.12188,-6.152414 5.33041,-7.749584 3.63947,-1.81161 6.92389,-0.92169 9.4624,1.8916 3.05557,3.386274 3.85221,7.266454 0.70389,11.617474 z"
   id="path8" />
</svg>
